<svg xmlns="http://www.w3.org/2000/svg" xmlns:xlink="http://www.w3.org/1999/xlink" width="364" height="223.784" viewBox="0 0 364 223.784">
  <defs>
    <radialGradient id="radial-gradient" cx="0.238" cy="0.661" r="1.189" gradientTransform="translate(0.091 0.081) scale(0.615 0.878)" gradientUnits="objectBoundingBox">
      <stop offset="0" stop-color="#bfbfbf"/>
      <stop offset="0.337" stop-color="#a8a8a8"/>
      <stop offset="1" stop-color="#727272"/>
    </radialGradient>
    <clipPath id="clip-path">
      <rect id="Rectangle_19" data-name="Rectangle 19" width="363.999" height="223.778" fill="none"/>
    </clipPath>
    <clipPath id="clip-path-2">
      <rect id="Rectangle_20" data-name="Rectangle 20" width="364" height="223.783" fill="none"/>
    </clipPath>
  </defs>
  <g id="img-credit-card-front" transform="translate(-137 -216)">
    <rect id="Rectangle_17" data-name="Rectangle 17" width="330.006" height="203.95" rx="10" transform="translate(153.993 234.998)" fill="#fff"/>
    <g id="Group_12" data-name="Group 12" transform="translate(137 216)">
      <g id="Group_11" data-name="Group 11">
        <rect id="Rectangle_18" data-name="Rectangle 18" width="363.999" height="223.778" rx="10" fill="url(#radial-gradient)"/>
        <g id="Group_7" data-name="Group 7" clip-path="url(#clip-path)">
          <g id="Group_6" data-name="Group 6" transform="translate(-198.202 19.766)" opacity="0.2">
            <path id="Path_19" data-name="Path 19" d="M747.561,610.767c34.661-39.99,167.776-173.268,411.846-183.3,84.534-3.471,155.96,7.008,210.458,20.2" transform="translate(-747.559 -426.799)" fill="none"/>
            <path id="Path_20" data-name="Path 20" d="M747.561,609.906c34.994-39.6,170.151-172.6,414.43-179.283a716.566,716.566,0,0,1,207.872,23.9" transform="translate(-747.559 -425.344)" fill="none"/>
            <path id="Path_21" data-name="Path 21" d="M747.561,609.11c35.328-39.081,172.544-171.355,417.015-175.3a682.635,682.635,0,0,1,205.284,27.81" transform="translate(-747.559 -423.918)" fill="none"/>
            <path id="Path_22" data-name="Path 22" d="M747.561,608.329c35.658-38.654,174.931-170.449,419.6-171.284a647.9,647.9,0,0,1,202.706,31.6" transform="translate(-747.559 -422.537)" fill="none"/>
            <path id="Path_23" data-name="Path 23" d="M747.561,607.565c35.985-38.24,177.324-169.577,422.179-167.259a616.011,616.011,0,0,1,200.125,35.378" transform="translate(-747.559 -421.189)" fill="none"/>
            <path id="Path_24" data-name="Path 24" d="M747.56,606.829c36.307-37.842,179.721-168.744,424.763-163.23a586.735,586.735,0,0,1,197.536,39.148" transform="translate(-747.56 -419.875)" fill="none"/>
            <path id="Path_25" data-name="Path 25" d="M747.561,606.115c36.633-37.466,182.127-167.948,427.352-159.182a559.918,559.918,0,0,1,194.952,42.907" transform="translate(-747.559 -418.593)" fill="none"/>
            <path id="Path_26" data-name="Path 26" d="M747.561,605.427c36.953-37.1,184.532-167.2,429.938-155.129,77.188,3.8,142.5,24.342,192.371,46.658" transform="translate(-747.559 -417.345)" fill="none"/>
            <path id="Path_27" data-name="Path 27" d="M747.561,604.758c37.278-36.753,186.958-166.483,432.52-151.066,76.131,4.78,140.577,26.764,189.785,50.4" transform="translate(-747.559 -416.13)" fill="none"/>
            <path id="Path_28" data-name="Path 28" d="M747.561,604.121c37.6-36.422,189.386-165.819,435.1-147,75.08,5.751,138.654,29.172,187.2,54.127" transform="translate(-747.559 -414.951)" fill="none"/>
            <path id="Path_29" data-name="Path 29" d="M747.561,603.506c37.916-36.107,191.827-165.2,437.687-142.919,74.026,6.708,136.724,31.562,184.612,57.841" transform="translate(-747.559 -413.802)" fill="none"/>
            <path id="Path_30" data-name="Path 30" d="M747.561,602.916c38.235-35.8,194.283-164.631,440.271-138.834,72.976,7.654,134.8,33.945,182.031,61.549" transform="translate(-747.559 -412.689)" fill="none"/>
            <path id="Path_31" data-name="Path 31" d="M747.561,602.354c38.554-35.52,196.75-164.112,442.856-134.74,71.926,8.584,132.881,36.31,179.449,65.247" transform="translate(-747.559 -411.608)" fill="none"/>
            <path id="Path_32" data-name="Path 32" d="M747.561,601.818C786.431,566.567,946.8,438.168,1193,471.177c70.877,9.5,130.96,38.663,176.865,68.934" transform="translate(-747.559 -410.561)" fill="none"/>
            <path id="Path_33" data-name="Path 33" d="M747.561,601.311c39.192-35,201.741-163.237,448.024-126.535,69.831,10.405,129.036,41,174.277,72.6" transform="translate(-747.559 -409.547)" fill="none"/>
            <path id="Path_34" data-name="Path 34" d="M747.561,600.828c39.511-34.759,204.267-162.883,450.608-122.423,68.784,11.3,127.116,43.32,171.692,76.261" transform="translate(-747.559 -408.568)" fill="none"/>
            <path id="Path_35" data-name="Path 35" d="M747.561,600.4c39.836-34.614,206.877-162.973,453.194-118.287,67.788,12.067,125.2,45.523,169.113,79.838" transform="translate(-747.559 -407.661)" fill="none"/>
            <path id="Path_36" data-name="Path 36" d="M747.561,599.948c40.149-34.326,209.387-162.354,455.776-114.18,66.67,13.036,123.292,48.2,166.529,83.8" transform="translate(-747.559 -406.708)" fill="none"/>
          </g>
        </g>
        <g id="Group_10" data-name="Group 10" transform="translate(0 0.001)">
          <g id="Group_9" data-name="Group 9" clip-path="url(#clip-path-2)">
            <g id="Group_8" data-name="Group 8" transform="translate(-198.202 19.768)" opacity="0.2">
              <path id="Path_37" data-name="Path 37" d="M747.561,411.426c34.661-39.985,167.777-173.27,411.849-183.3,84.535-3.472,155.961,7.008,210.459,20.2" transform="translate(-747.559 -227.458)" fill="none" stroke="#d9d9d9" stroke-linecap="round" stroke-width="0.6"/>
              <path id="Path_38" data-name="Path 38" d="M747.561,410.568c34.994-39.6,170.151-172.6,414.431-179.284a716.514,716.514,0,0,1,207.873,23.9" transform="translate(-747.559 -226.003)" fill="none" stroke="#d9d9d9" stroke-linecap="round" stroke-width="0.6"/>
              <path id="Path_39" data-name="Path 39" d="M747.561,409.77c35.328-39.082,172.545-171.359,417.016-175.3a682.625,682.625,0,0,1,205.288,27.808" transform="translate(-747.559 -224.575)" fill="none" stroke="#d9d9d9" stroke-linecap="round" stroke-width="0.6"/>
              <path id="Path_40" data-name="Path 40" d="M747.561,408.987c35.658-38.652,174.932-170.454,419.6-171.287a647.889,647.889,0,0,1,202.707,31.6" transform="translate(-747.559 -223.194)" fill="none" stroke="#d9d9d9" stroke-linecap="round" stroke-width="0.6"/>
              <path id="Path_41" data-name="Path 41" d="M747.561,408.225c35.985-38.243,177.325-169.581,422.185-167.262a615.956,615.956,0,0,1,200.126,35.379" transform="translate(-747.559 -221.847)" fill="none" stroke="#d9d9d9" stroke-linecap="round" stroke-width="0.6"/>
              <path id="Path_42" data-name="Path 42" d="M747.56,407.488c36.308-37.845,179.722-168.748,424.769-163.23a586.733,586.733,0,0,1,197.537,39.149" transform="translate(-747.56 -220.532)" fill="none" stroke="#d9d9d9" stroke-linecap="round" stroke-width="0.6"/>
              <path id="Path_43" data-name="Path 43" d="M747.561,406.774c36.638-37.466,182.128-167.951,427.355-159.185A559.915,559.915,0,0,1,1369.868,290.5" transform="translate(-747.559 -219.251)" fill="none" stroke="#d9d9d9" stroke-linecap="round" stroke-width="0.6"/>
              <path id="Path_44" data-name="Path 44" d="M747.561,406.084c36.953-37.1,184.537-167.2,429.937-155.133,77.188,3.8,142.5,24.343,192.371,46.658" transform="translate(-747.559 -218.003)" fill="none" stroke="#d9d9d9" stroke-linecap="round" stroke-width="0.6"/>
              <path id="Path_45" data-name="Path 45" d="M747.561,405.418c37.278-36.754,186.958-166.486,432.522-151.069,76.131,4.78,140.578,26.764,189.786,50.4" transform="translate(-747.559 -216.788)" fill="none" stroke="#d9d9d9" stroke-linecap="round" stroke-width="0.6"/>
              <path id="Path_46" data-name="Path 46" d="M747.561,404.779c37.6-36.421,189.386-165.821,435.1-147,75.081,5.752,138.654,29.173,187.2,54.128" transform="translate(-747.559 -215.607)" fill="none" stroke="#d9d9d9" stroke-linecap="round" stroke-width="0.6"/>
              <path id="Path_47" data-name="Path 47" d="M747.561,404.164c37.916-36.1,191.828-165.2,437.69-142.922,74.027,6.708,136.724,31.565,184.613,57.841" transform="translate(-747.559 -214.46)" fill="none" stroke="#d9d9d9" stroke-linecap="round" stroke-width="0.6"/>
              <path id="Path_48" data-name="Path 48" d="M747.561,403.575c38.234-35.809,194.283-164.634,440.269-138.837,72.976,7.653,134.8,33.944,182.031,61.55" transform="translate(-747.559 -213.345)" fill="none" stroke="#d9d9d9" stroke-linecap="round" stroke-width="0.6"/>
              <path id="Path_49" data-name="Path 49" d="M747.561,403.018C786.115,367.5,944.312,238.9,1190.418,268.275c71.926,8.583,132.881,36.311,179.449,65.249" transform="translate(-747.559 -212.266)" fill="none" stroke="#d9d9d9" stroke-linecap="round" stroke-width="0.6"/>
              <path id="Path_50" data-name="Path 50" d="M747.561,402.477C786.431,367.226,946.8,238.827,1193,271.836c70.878,9.5,130.961,38.662,176.866,68.935" transform="translate(-747.559 -211.218)" fill="none" stroke="#d9d9d9" stroke-linecap="round" stroke-width="0.6"/>
              <path id="Path_51" data-name="Path 51" d="M747.561,401.968c39.192-35,201.746-163.239,448.026-126.536,69.831,10.405,129.037,41,174.278,72.6" transform="translate(-747.559 -210.205)" fill="none" stroke="#d9d9d9" stroke-linecap="round" stroke-width="0.6"/>
              <path id="Path_52" data-name="Path 52" d="M747.561,401.487c39.511-34.76,204.268-162.885,450.609-122.425,68.784,11.3,127.117,43.319,171.693,76.263" transform="translate(-747.559 -209.225)" fill="none" stroke="#d9d9d9" stroke-linecap="round" stroke-width="0.6"/>
              <path id="Path_53" data-name="Path 53" d="M747.561,401.055c39.836-34.611,206.878-162.977,453.194-118.29,67.788,12.067,125.2,45.524,169.113,79.84" transform="translate(-747.559 -208.317)" fill="none" stroke="#d9d9d9" stroke-linecap="round" stroke-width="0.6"/>
              <path id="Path_54" data-name="Path 54" d="M747.561,400.606c40.15-34.327,209.388-162.354,455.778-114.186,66.67,13.036,123.292,48.2,166.53,83.8" transform="translate(-747.559 -207.364)" fill="none" stroke="#d9d9d9" stroke-linecap="round" stroke-width="0.6"/>
            </g>
          </g>
        </g>
      </g>
    </g>
  </g>
</svg>
